<svg width="367" height="43" viewBox="0 0 367 43" fill="none" xmlns="http://www.w3.org/2000/svg">
<path d="M208.545 34.6242L209.669 35.4466C206.402 40.242 202.512 42.6341 197.997 42.6341C194.388 42.6341 191.246 41.053 188.584 37.8803C184.943 41.053 181 42.6341 176.724 42.6341C173.313 42.6341 170.462 41.6561 168.184 39.711C165.896 37.7559 164.752 35.2592 164.752 32.2109C164.752 25.8966 169.579 21.1118 179.232 17.8557C178.274 14.9743 177.796 12.6339 177.796 10.845C177.796 7.88015 178.784 5.36296 180.75 3.2926C182.727 1.22299 185.608 0.182861 189.405 0.182861C192.13 0.182861 194.346 0.806477 196.062 2.0446C197.779 3.28272 198.642 4.88427 198.642 6.86056C198.642 9.31556 197.363 11.3131 194.804 12.863C192.245 14.4023 189.394 15.692 186.264 16.7329C188.094 22.0897 190.154 26.8435 192.453 30.963C193.576 29.4753 195.002 27.2698 196.749 24.3368C198.497 21.4031 199.932 19.3229 201.066 18.1053C202.189 16.8785 203.625 16.2747 205.372 16.2747C206.693 16.2747 207.786 16.6912 208.639 17.5333C209.492 18.3867 209.918 19.3434 209.918 20.4147C209.918 21.2886 209.616 22.048 209.013 22.6928C208.42 23.3278 207.702 23.6503 206.87 23.6503C206.059 23.6503 205.362 23.3589 204.8 22.7657C204.228 22.1732 203.947 21.476 203.947 20.665C203.947 20.2796 204.02 19.8737 204.187 19.458C204.353 19.0422 204.436 18.8131 204.436 18.7714C204.436 18.4907 204.207 18.345 203.76 18.345C202.626 18.345 201.326 19.5725 199.88 22.0169C198.424 24.4719 197.529 25.949 197.206 26.4482L194.128 31.2649C193.93 31.5554 193.638 32.0137 193.274 32.6373C195.615 37.287 198.299 39.6176 201.326 39.6176C203.906 39.6176 206.309 37.9532 208.545 34.6242ZM185.837 15.4219C191.079 12.998 193.701 9.71078 193.701 5.55033C193.701 2.92843 192.255 1.61823 189.342 1.61823C187.48 1.61823 186.056 2.10685 185.098 3.09538C184.131 4.08314 183.642 5.37358 183.642 6.9751C183.642 8.70179 184.381 11.5209 185.837 15.4219ZM179.596 19.1667C174.551 21.2059 172.034 24.3786 172.034 28.706C172.034 31.5767 172.751 34.2084 174.187 36.6012C175.611 39.0039 177.671 40.2003 180.355 40.2003C182.592 40.2003 185.036 39.0244 187.699 36.6946C184.734 32.5645 182.03 26.7289 179.596 19.1667Z" fill="#AA8ABD"/>
<path d="M239.875 20.6498H361.516V22.1671H239.875V20.6498Z" fill="#AA8ABD"/>
<path d="M242.609 22.9704L249.243 21.4076L242.609 19.8433C242.028 19.7067 241.575 19.253 241.438 18.6719L239.874 12.0383L238.311 18.6734C238.173 19.2531 237.721 19.7067 237.139 19.8433L230.507 21.4076L237.139 22.9704C237.721 23.1077 238.173 23.5614 238.311 24.141L239.874 30.7754L241.438 24.141C241.575 23.5614 242.028 23.1077 242.609 22.9704Z" fill="#AA8ABD"/>
<path d="M363.116 22.3226L367 21.4069L363.116 20.492C362.777 20.4116 362.512 20.146 362.431 19.8062L361.516 15.9234L360.601 19.8069C360.52 20.146 360.256 20.4116 359.915 20.492L356.033 21.4069L359.915 22.3226C360.256 22.4023 360.52 22.6678 360.601 23.0069L361.516 26.8905L362.431 23.0069C362.512 22.6678 362.777 22.4023 363.116 22.3226Z" fill="#AA8ABD"/>
<path d="M5.48291 20.6498H127.124V22.1671H5.48291V20.6498Z" fill="#AA8ABD"/>
<path d="M124.391 22.9704L117.756 21.4076L124.391 19.8433C124.971 19.7067 125.425 19.253 125.561 18.6719L127.125 12.0383L128.689 18.6734C128.827 19.2531 129.279 19.7067 129.86 19.8433L136.493 21.4076L129.86 22.9704C129.279 23.1077 128.827 23.5614 128.689 24.141L127.125 30.7754L125.561 24.141C125.425 23.5614 124.971 23.1077 124.391 22.9704Z" fill="#AA8ABD"/>
<path d="M3.8835 22.3226L0 21.4069L3.8835 20.492C4.22262 20.4116 4.48817 20.146 4.56859 19.8062L5.48349 15.9234L6.39846 19.8069C6.47964 20.146 6.74365 20.4116 7.08429 20.492L10.9671 21.4069L7.08429 22.3226C6.74365 22.4023 6.47964 22.6678 6.39846 23.0069L5.48349 26.8905L4.56859 23.0069C4.48817 22.6678 4.22262 22.4023 3.8835 22.3226Z" fill="#AA8ABD"/>
</svg>
