<svg width="137" height="19" viewBox="0 0 137 19" fill="none" xmlns="http://www.w3.org/2000/svg">
<path d="M5.48291 8.64978H127.124V10.1671H5.48291V8.64978Z" fill="#AA8ABD"/>
<path d="M124.391 10.9704L117.756 9.40763L124.391 7.84328C124.971 7.70672 125.425 7.25301 125.561 6.67189L127.125 0.038269L128.689 6.67344C128.827 7.25305 129.279 7.70672 129.86 7.84328L136.493 9.40763L129.86 10.9704C129.279 11.1077 128.827 11.5614 128.689 12.141L127.125 18.7754L125.561 12.141C125.425 11.5614 124.971 11.1077 124.391 10.9704Z" fill="#AA8ABD"/>
<path d="M3.8835 10.3226L0 9.40689L3.8835 8.49199C4.22262 8.41157 4.48817 8.14604 4.56859 7.80616L5.48349 3.9234L6.39846 7.8069C6.47964 8.14602 6.74365 8.41157 7.08429 8.49199L10.9671 9.40689L7.08429 10.3226C6.74365 10.4023 6.47964 10.6678 6.39846 11.0069L5.48349 14.8905L4.56859 11.0069C4.48817 10.6678 4.22262 10.4023 3.8835 10.3226Z" fill="#AA8ABD"/>
</svg>
