<svg width="117" height="117" viewBox="0 0 117 117" fill="none" xmlns="http://www.w3.org/2000/svg">
<path d="M16.3153 105.191H100.683C110.868 105.191 116.06 100.098 116.06 90.0106V38.7416C116.06 28.6545 110.868 23.611 100.683 23.611H89.2251C85.4059 23.611 84.2317 22.8275 82.0275 20.3788L78.0599 15.9705C75.6614 13.2795 73.1647 11.8086 68.0711 11.8086H48.5822C43.5387 11.8086 41.0399 13.2795 38.5933 15.9705L34.6258 20.3788C32.4717 22.7773 31.2474 23.611 27.4282 23.611H16.3132C6.12791 23.611 0.936035 28.6545 0.936035 38.7416V90.0106C0.936035 100.098 6.13 105.191 16.3153 105.191ZM58.475 89.5217C43.6849 89.5217 31.7864 77.6211 31.7864 62.737C31.7864 47.8488 43.6849 35.9524 58.4729 35.9524C73.359 35.9524 85.2095 47.8488 85.2095 62.737C85.2095 77.6211 73.311 89.5217 58.4729 89.5217M93.6794 50.7863C90.3491 50.7863 87.608 48.0953 87.608 44.765C87.608 43.1547 88.2476 41.6104 89.3863 40.4718C90.5249 39.3332 92.0692 38.6935 93.6794 38.6935C95.2897 38.6935 96.834 39.3332 97.9726 40.4718C99.1112 41.6104 99.7509 43.1547 99.7509 44.765C99.7509 48.0953 97.0098 50.7863 93.6794 50.7863ZM58.475 82.0796C61.0159 82.0827 63.5325 81.5844 65.8806 80.6134C68.2288 79.6424 70.3623 78.2178 72.159 76.4211C73.9557 74.6243 75.3804 72.4908 76.3514 70.1427C77.3223 67.7946 77.8206 65.278 77.8176 62.737C77.8203 60.1962 77.3219 57.6799 76.3508 55.332C75.3797 52.9841 73.955 50.8508 72.1583 49.0543C70.3616 47.2578 68.2281 45.8334 65.8802 44.8625C63.5322 43.8917 61.0158 43.3935 58.475 43.3965C47.7987 43.3965 39.1825 52.0148 39.1825 62.737C39.1825 73.4613 47.8489 82.0796 58.475 82.0796Z" fill="#AE96BC"/>
</svg>
