<svg width="362" height="78" viewBox="0 0 362 78" fill="none" xmlns="http://www.w3.org/2000/svg">
<path d="M7.60005 8.1C7.60005 0.5 1.00005 0.300002 0.300049 0.300002V0H21.2001V0.300002C20.5 0.300002 13.8 0.5 13.8 8.1V36.8L60.7001 36.9V8.1C60.7001 0.5 54.0001 0.300002 53.3001 0.300002V0H74.2001V0.300002C73.5001 0.300002 66.9001 0.5 66.9001 8.1V68.4C66.9001 76 73.5001 76.2 74.2001 76.2V76.4H53.3001V76.2C54.0001 76.2 60.7001 76 60.7001 68.4V45.5C60.7001 42.2 59.1001 39.4 51 39.4H23.5C15.3 39.4 13.8 42.2 13.8 45.5V68.4C13.8 76 20.5 76.2 21.2001 76.2V76.4H0.300049V76.2C1.00005 76.2 7.60005 76 7.60005 68.4V8.1Z" fill="#AA8ABD"/>
<path d="M136.057 76.4H119.157V76.2H119.257C119.857 76.2 124.757 76 124.757 70.3V37.4C124.757 35.3 124.257 34.1 123.557 33.9H123.357C122.957 33.9 122.557 34.1 122.157 34.5L89.2571 66.5V70.3C89.2571 76 94.1571 76.2 94.7571 76.2H94.8571V76.4H77.9571V76.2H78.0571C78.6571 76.2 83.5571 76 83.5571 70.3V24.7C83.5571 19 78.6571 18.8 78.0571 18.8H77.9571V18.6H94.8571V18.8H94.7571C94.1571 18.8 89.2571 19 89.2571 24.7V61.2L124.757 26.7V24.7C124.757 19 119.857 18.8 119.257 18.8H119.157V18.6H136.057V18.8C136.057 18.8 130.457 18.9 130.457 25V70.6C130.457 75.8 134.557 76.2 135.757 76.2H136.057V76.4Z" fill="#AA8ABD"/>
<path d="M189.536 76.5C184.536 76.5 183.736 75.6 178.036 68C170.536 58 164.636 48 154.936 48C151.936 48 149.036 48.5 149.036 51.7V70.3C149.036 76.1 154.236 76.2 154.536 76.2V76.4H137.636V76.2C138.036 76.2 142.936 76.1 143.136 70.6L143.036 24.8C143.036 18.9 137.836 18.8 137.536 18.8V18.6H154.536V18.8C154.236 18.8 149.036 18.9 149.036 24.8V45.1C160.636 45.1 158.536 30.7 167.136 23.1C170.636 20 175.136 18.4 179.636 18.4H180.036C184.636 18.5 189.136 20.2 192.536 23.7L191.236 31.2L188.336 30.6V29.7C188.336 23.6 185.536 20.6 180.036 20.6H179.736C175.636 20.6 171.736 22.5 169.036 27.9C165.636 34.1 164.836 43.5 156.036 46.2H157.836C158.136 46.2 164.636 47.1 169.236 49.8C181.536 57.4 186.536 76.2 194.936 76.2H195.036V76.4L189.536 76.5Z" fill="#AA8ABD"/>
<path d="M254.178 76.4H237.278V76.2H237.378C237.978 76.2 242.878 76 242.878 70.3V37.4C242.878 35.3 242.378 34.1 241.678 33.9H241.478C241.078 33.9 240.678 34.1 240.278 34.5L207.378 66.5V70.3C207.378 76 212.278 76.2 212.878 76.2H212.978V76.4H196.078V76.2H196.178C196.778 76.2 201.678 76 201.678 70.3V24.7C201.678 19 196.778 18.8 196.178 18.8H196.078V18.6H212.978V18.8H212.878C212.278 18.8 207.378 19 207.378 24.7V61.2L242.878 26.7V24.7C242.878 19 237.978 18.8 237.378 18.8H237.278V18.6H254.178V18.8C254.178 18.8 248.578 18.9 248.578 25V70.6C248.578 75.8 252.678 76.2 253.878 76.2H254.178V76.4Z" fill="#AA8ABD"/>
<path d="M286.557 76.4H269.457V76.2C269.757 76.2 274.957 76.1 274.957 70.3L275.157 25.5C275.157 21.9 273.457 21 269.957 21L265.357 20.9C260.057 20.9 255.657 21.7 253.257 28.6H252.457C253.457 24.8 253.957 21 254.957 17.3H255.657C255.657 17.3 257.757 18.7 260.457 18.7H295.657C298.257 18.7 300.357 17.3 300.357 17.3H301.157C302.057 21 303.157 24.8 303.957 28.6H303.157C300.757 21.7 296.357 20.9 291.057 20.9L286.457 21C282.857 21 281.257 21.9 281.257 25.5L281.057 70.3C281.057 76.1 286.257 76.2 286.557 76.2V76.4Z" fill="#AA8ABD"/>
<path d="M310.422 55C310.422 68.4 320.522 75.1 331.022 75.3H331.522C339.022 75.3 349.822 70.5 349.822 62.3V51C349.822 40.3 342.022 34.7 331.422 34.5H331.222C320.622 34.5 310.422 41.3 310.422 55ZM313.722 31.8L313.022 31.9L311.722 24.4C315.322 20.7 323.822 18.5 332.322 18.5H332.922C344.122 18.6 355.422 22.5 355.722 32V69.4C355.722 73.1 357.922 75.7 361.722 75.7H361.922V76H359.722C356.022 76 351.322 76.4 349.822 77.4V70.8C344.522 75.2 337.622 77.4 330.822 77.4C317.122 77.3 304.422 68.2 304.422 55C304.422 41.7 317.222 32.5 330.822 32.5H331.522C338.122 32.6 344.722 34.8 349.822 39.2V35.1C349.722 24.6 341.322 20.5 332.522 20.5H331.222C325.022 20.8 313.722 24.1 313.722 31.8Z" fill="#AA8ABD"/>
</svg>
