<svg width="45" height="46" viewBox="0 0 45 46" fill="none" xmlns="http://www.w3.org/2000/svg">
<path fill-rule="evenodd" clip-rule="evenodd" d="M22.4668 4.46904C21.9825 4.48071 21.5221 4.68183 21.1844 5.02922C20.8467 5.37662 20.6588 5.84257 20.6608 6.32702V27.7589C19.2441 26.9409 17.597 26.6132 15.975 26.8267C14.3531 27.0402 12.8469 27.7829 11.69 28.9396C10.5332 30.0964 9.79028 31.6025 9.57661 33.2244C9.36294 34.8464 9.69041 36.4935 10.5082 37.9103C11.326 39.3272 12.5885 40.4347 14.0998 41.0609C15.6112 41.6872 17.2869 41.7973 18.8672 41.3741C20.4475 40.951 21.844 40.0182 22.8401 38.7205C23.8363 37.4228 24.3764 35.8327 24.3768 34.1968V15.9514L33.362 17.4489C33.6281 17.4931 33.9006 17.4789 34.1606 17.4072C34.4206 17.3355 34.6618 17.2081 34.8676 17.0338C35.0734 16.8595 35.2388 16.6424 35.3523 16.3978C35.4657 16.1531 35.5246 15.8866 35.5247 15.6169V8.185C35.5245 7.74521 35.3683 7.31974 35.0839 6.98429C34.7995 6.64884 34.4053 6.42516 33.9714 6.35303L22.8588 4.50062C22.7296 4.47631 22.5982 4.46572 22.4668 4.46904Z" fill="#AB93B9"/>
</svg>
