<svg width="45" height="45" viewBox="0 0 45 45" fill="none" xmlns="http://www.w3.org/2000/svg">
<path fill-rule="evenodd" clip-rule="evenodd" d="M22.1033 4.22997C21.6222 4.24156 21.1648 4.44137 20.8293 4.78648C20.4939 5.1316 20.3071 5.59449 20.3092 6.07577V27.3671C18.9017 26.5545 17.2654 26.229 15.6541 26.4411C14.0428 26.6532 12.5464 27.391 11.3972 28.5401C10.2479 29.6893 9.5099 31.1855 9.29763 32.7968C9.08536 34.4081 9.41068 36.0445 10.2231 37.452C11.0356 38.8596 12.2898 39.9598 13.7912 40.582C15.2926 41.2041 16.9574 41.3135 18.5273 40.8931C20.0972 40.4727 21.4846 39.5461 22.4742 38.2569C23.4638 36.9677 24.0004 35.388 24.0008 33.7628V15.637L32.9271 17.1247C33.1914 17.1687 33.4621 17.1546 33.7204 17.0833C33.9787 17.0121 34.2184 16.8855 34.4229 16.7124C34.6273 16.5392 34.7916 16.3236 34.9043 16.0805C35.017 15.8374 35.0755 15.5727 35.0756 15.3048V7.92157C35.0754 7.48466 34.9202 7.06198 34.6377 6.72873C34.3551 6.39548 33.9635 6.17327 33.5325 6.10161L22.4928 4.26135C22.3644 4.23719 22.2339 4.22667 22.1033 4.22997Z" fill="#AB93B9"/>
<path d="M10.2319 12.2853L34.2451 31.0992" stroke="#AB93B9" stroke-width="2" stroke-linecap="round"/>
</svg>
