<svg width="388" height="80" viewBox="0 0 388 80" fill="none" xmlns="http://www.w3.org/2000/svg">
<path d="M44.4 78.4H23.5V78.1C24.2 78.1 30.8 77.9 30.8 70.3L30.5 10.9C30.5 6.09998 28.3 4.99999 23.6 4.99999L17.5 4.89999C10.5 4.89999 4.6 5.89999 1.5 15H0.5L4.2 0.199982H5.3C5.3 0.199982 8 1.99998 11.5 1.99998H56.3C59.8 1.99998 62.6 0.199982 62.6 0.199982H63.6C64.8 5.09998 65.7 9.99999 66.8 15H65.8C62.6 5.89999 56.8 4.89999 49.8 4.89999L43.7 4.99999C39 4.99999 36.8 6.09998 36.8 10.9L37 70.3C37 77.9 43.7 78.1 44.4 78.1V78.4Z" fill="#AA8ABD"/>
<path d="M66.3398 57C66.3398 70.4 76.4398 77.1 86.9398 77.3H87.4398C94.9398 77.3 105.74 72.5 105.74 64.3V53C105.74 42.3 97.9398 36.7 87.3398 36.5H87.1398C76.5398 36.5 66.3398 43.3 66.3398 57ZM69.6398 33.8L68.9398 33.9L67.6398 26.4C71.2398 22.7 79.7398 20.5 88.2398 20.5H88.8398C100.04 20.6 111.34 24.5 111.64 34V71.4C111.64 75.1 113.84 77.7 117.64 77.7H117.84V78H115.64C111.94 78 107.24 78.4 105.74 79.4V72.8C100.44 77.2 93.5398 79.4 86.7398 79.4C73.0398 79.3 60.3398 70.2 60.3398 57C60.3398 43.7 73.1398 34.5 86.7398 34.5H87.4398C94.0398 34.6 100.64 36.8 105.74 41.2V37.1C105.64 26.6 97.2399 22.5 88.4398 22.5H87.1398C80.9398 22.8 69.6398 26.1 69.6398 33.8Z" fill="#AA8ABD"/>
<path d="M150.147 78.4H133.047V78.2C133.347 78.2 138.547 78.1 138.547 72.3L138.747 27.5C138.747 23.9 137.047 23 133.547 23L128.947 22.9C123.647 22.9 119.247 23.7 116.847 30.6H116.047C117.047 26.8 117.547 23 118.547 19.3H119.247C119.247 19.3 121.347 20.7 124.047 20.7H159.247C161.847 20.7 163.947 19.3 163.947 19.3H164.747C165.647 23 166.747 26.8 167.547 30.6H166.747C164.347 23.7 159.947 22.9 154.647 22.9L150.047 23C146.447 23 144.847 23.9 144.847 27.5L144.647 72.3C144.647 78.1 149.847 78.2 150.147 78.2V78.4Z" fill="#AA8ABD"/>
<path d="M198.512 76.9C205.412 76.9 209.112 70.8 209.112 64.5C209.112 57.8 204.912 50.8 196.012 50.8H177.112V73.4C177.512 75.4 179.112 76.9 184.312 76.9H198.512ZM200.212 78.4H165.512V78.2C165.912 78.2 170.912 78.1 171.012 72.6V26.4C170.912 20.9 165.912 20.8 165.512 20.8V20.6H182.612V20.8H182.512C181.912 20.8 177.112 21 177.112 26.7V44.3C177.112 46.9 178.212 49 184.412 49H197.312C209.112 49.1 215.012 57.1 215.012 64.8C215.012 71.8 210.112 78.4 200.212 78.4Z" fill="#AA8ABD"/>
<path d="M259.2 48.3V26.8C259.2 24.3 258 22.2 251.8 22.2H237.6C230.7 22.2 227 28.3 227 34.6C227 41.3 231.2 48.3 240.1 48.3H259.2ZM218.6 78.7L213 78.6V78.5H213.1C222.3 78.5 227.4 55.9 242.5 50.2H238.8C227.1 50.1 221.1 42 221.1 34.3C221.1 27.3 226.1 20.6 236 20.6H269.9V20.9C269.4 20.9 264.5 21 264.4 26.5V73.4C264.4 78.1 269.1 78.3 269.8 78.3H269.9V78.5H253.6V78.3H253.7C254.4 78.3 259.2 78.1 259.2 72.5V53.9C259.2 50.7 256.3 50.2 253.2 50.2H253.1C243.4 50.2 237.6 60.2 230.1 70.2C224.4 77.8 223.6 78.7 218.6 78.7Z" fill="#AA8ABD"/>
<path d="M327.81 78.7H310.81V78.5H310.91C311.51 78.5 316.41 78.3 316.41 72.6V55.3C316.41 52.8 315.21 50.7 309.01 50.7H289.41C283.21 50.7 282.11 52.8 282.11 55.3V72.6C282.11 77.8 286.21 78.2 287.31 78.2H287.61V78.4H270.91V78.2H271.01C271.61 78.2 276.41 78 276.41 72.3V26.7C276.41 20.9 271.21 20.8 270.91 20.8V20.6H287.61V20.8C287.61 20.8 282.11 20.9 282.11 27V47.2L316.41 47.3V26.7C316.41 20.9 311.21 20.8 310.81 20.8V20.6H327.81V20.8H327.71C327.11 20.8 322.21 21 322.21 26.7V72.6C322.21 78.3 327.11 78.5 327.71 78.5H327.81V78.7Z" fill="#AA8ABD"/>
<path d="M335.617 57C335.617 70.4 345.717 77.1 356.217 77.3H356.717C364.217 77.3 375.017 72.5 375.017 64.3V53C375.017 42.3 367.217 36.7 356.617 36.5H356.417C345.817 36.5 335.617 43.3 335.617 57ZM338.917 33.8L338.217 33.9L336.917 26.4C340.517 22.7 349.017 20.5 357.517 20.5H358.117C369.317 20.6 380.617 24.5 380.917 34V71.4C380.917 75.1 383.117 77.7 386.917 77.7H387.117V78H384.917C381.217 78 376.517 78.4 375.017 79.4V72.8C369.717 77.2 362.817 79.4 356.017 79.4C342.317 79.3 329.617 70.2 329.617 57C329.617 43.7 342.417 34.5 356.017 34.5H356.717C363.317 34.6 369.917 36.8 375.017 41.2V37.1C374.917 26.6 366.517 22.5 357.717 22.5H356.417C350.217 22.8 338.917 26.1 338.917 33.8Z" fill="#AA8ABD"/>
</svg>
