<svg width="226" height="123" viewBox="0 0 226 123" fill="none" xmlns="http://www.w3.org/2000/svg">
<path d="M113 19C144.098 19 172.267 24.1151 192.667 32.3841C213.261 40.732 226 52.3405 226 65.228C226 78.1154 213.261 89.724 192.667 98.0719C172.267 106.341 144.098 111.456 113 111.456C81.9019 111.456 53.7333 106.341 33.3335 98.0719C12.739 89.724 0 78.1154 0 65.228C0 52.3405 12.739 40.732 33.3335 32.3841C53.7333 24.1151 81.9019 19 113 19ZM192.134 33.7C171.894 25.4956 143.916 20.421 113 20.421C82.0838 20.421 54.1056 25.4956 33.8664 33.7C13.8204 41.8255 1.42104 52.9772 1.42104 65.228C1.42104 77.4788 13.8204 88.6305 33.8664 96.756C54.1056 104.96 82.0838 110.035 113 110.035C143.916 110.035 171.894 104.96 192.134 96.756C212.18 88.6305 224.579 77.4788 224.579 65.228C224.579 52.9772 212.18 41.8255 192.134 33.7Z" fill="#AB93B9"/>
<path d="M117.643 21.8358L123.309 20.5018L117.644 19.1654C116.951 19.0034 116.331 18.6462 115.844 18.1615C115.353 17.6755 114.998 17.0521 114.835 16.355L113.499 10.6915L112.164 16.3576C112 17.0558 111.642 17.678 111.158 18.1628C110.674 18.6463 110.052 19.0022 109.354 19.1654L103.69 20.5018L109.354 21.8358C110.053 22.0002 110.674 22.3561 111.158 22.8396C111.642 23.3244 112 23.9466 112.164 24.6413L113.499 30.3097L114.835 24.6448C114.998 23.9527 115.354 23.3318 115.839 22.8458C116.325 22.355 116.947 22.0002 117.643 21.8358ZM128.934 21.6959L118.205 24.2228C117.963 24.2817 117.745 24.4056 117.574 24.5762C117.405 24.7431 117.279 24.9602 117.223 25.202L113.499 41L109.777 25.2057C109.718 24.964 109.593 24.7456 109.422 24.575C109.253 24.4056 109.035 24.2792 108.796 24.2239L93 20.5018L108.796 16.7772C109.036 16.722 109.254 16.5955 109.422 16.4274C109.593 16.2568 109.719 16.0372 109.776 15.7967L113.498 0L117.223 15.7979C117.278 16.0372 117.403 16.2556 117.574 16.4262C117.741 16.5956 117.958 16.7208 118.201 16.7772L134 20.5018L128.934 21.6959Z" fill="#AB93B9"/>
<path d="M110.385 22.5397L103.178 20.3561L110.385 18.1718C111.015 17.9803 111.508 17.3471 111.657 16.5349L113.355 7.26978L115.054 16.537C115.204 17.3471 115.695 17.9803 116.327 18.1718L123.533 20.3561L116.327 22.5397C115.695 22.7306 115.204 23.3645 115.054 24.1746L113.355 33.4411L111.657 24.1746C111.508 23.3645 111.015 22.7306 110.385 22.5397Z" fill="#F7F6FB"/>
<path d="M115.425 111.782L118.742 111.001L115.426 110.219C115.02 110.124 114.657 109.915 114.372 109.631C114.084 109.347 113.877 108.982 113.781 108.574L113 105.258L112.218 108.575C112.122 108.984 111.913 109.348 111.629 109.632C111.346 109.915 110.982 110.123 110.573 110.219L107.257 111.001L110.573 111.782C110.982 111.878 111.346 112.086 111.629 112.37C111.913 112.653 112.122 113.018 112.218 113.424L113 116.742L113.781 113.426C113.877 113.021 114.085 112.658 114.369 112.373C114.653 112.086 115.018 111.878 115.425 111.782ZM122.034 111.7L115.754 113.179C115.612 113.214 115.485 113.286 115.385 113.386C115.286 113.484 115.212 113.611 115.179 113.752L113 123L110.821 113.755C110.786 113.613 110.713 113.485 110.613 113.385C110.514 113.286 110.386 113.212 110.247 113.18L101 111.001L110.247 108.821C110.387 108.789 110.515 108.714 110.613 108.616C110.713 108.516 110.787 108.388 110.82 108.247L112.999 99L115.179 108.248C115.212 108.388 115.285 108.515 115.385 108.615C115.482 108.714 115.61 108.788 115.752 108.821L125 111.001L122.034 111.7Z" fill="#AB93B9"/>
<path d="M111.177 112.194L106.958 110.916L111.177 109.637C111.546 109.525 111.834 109.154 111.921 108.679L112.915 103.255L113.91 108.68C113.998 109.154 114.285 109.525 114.655 109.637L118.873 110.916L114.655 112.194C114.285 112.306 113.998 112.677 113.91 113.151L112.915 118.575L111.921 113.151C111.834 112.677 111.546 112.306 111.177 112.194Z" fill="#F7F6FB"/>
</svg>
